<svg width="21" height="29" viewBox="0 0 21 29" fill="none" xmlns="http://www.w3.org/2000/svg">
<path d="M20.6562 28.5H0.65625V0.5H20.6562V28.5Z" stroke="#E5E7EB"/>
<g clip-path="url(#clip0_552_2180)">
<path d="M12.5312 5.875C12.5312 5.37772 12.3337 4.90081 11.9821 4.54917C11.6304 4.19754 11.1535 4 10.6562 4C10.159 4 9.68206 4.19754 9.33042 4.54917C8.97879 4.90081 8.78125 5.37772 8.78125 5.875C8.78125 6.37228 8.97879 6.84919 9.33042 7.20083C9.68206 7.55246 10.159 7.75 10.6562 7.75C11.1535 7.75 11.6304 7.55246 11.9821 7.20083C12.3337 6.84919 12.5312 6.37228 12.5312 5.875ZM12.5312 22.125C12.5312 21.6277 12.3337 21.1508 11.9821 20.7992C11.6304 20.4475 11.1535 20.25 10.6562 20.25C10.159 20.25 9.68206 20.4475 9.33042 20.7992C8.97879 21.1508 8.78125 21.6277 8.78125 22.125C8.78125 22.6223 8.97879 23.0992 9.33042 23.4508C9.68206 23.8025 10.159 24 10.6562 24C11.1535 24 11.6304 23.8025 11.9821 23.4508C12.3337 23.0992 12.5312 22.6223 12.5312 22.125ZM2.53125 15.875C3.02853 15.875 3.50544 15.6775 3.85708 15.3258C4.20871 14.9742 4.40625 14.4973 4.40625 14C4.40625 13.5027 4.20871 13.0258 3.85708 12.6742C3.50544 12.3225 3.02853 12.125 2.53125 12.125C2.03397 12.125 1.55706 12.3225 1.20542 12.6742C0.853794 13.0258 0.65625 13.5027 0.65625 14C0.65625 14.4973 0.853794 14.9742 1.20542 15.3258C1.55706 15.6775 2.03397 15.875 2.53125 15.875ZM20.6562 14C20.6562 13.5027 20.4587 13.0258 20.1071 12.6742C19.7554 12.3225 19.2785 12.125 18.7812 12.125C18.284 12.125 17.8071 12.3225 17.4554 12.6742C17.1038 13.0258 16.9062 13.5027 16.9062 14C16.9062 14.4973 17.1038 14.9742 17.4554 15.3258C17.8071 15.6775 18.284 15.875 18.7812 15.875C19.2785 15.875 19.7554 15.6775 20.1071 15.3258C20.4587 14.9742 20.6562 14.4973 20.6562 14ZM6.23828 21.0703C6.41244 20.8962 6.55058 20.6894 6.64484 20.4619C6.73909 20.2343 6.7876 19.9904 6.7876 19.7441C6.7876 19.4978 6.73909 19.254 6.64484 19.0264C6.55058 18.7989 6.41244 18.5921 6.23828 18.418C6.06413 18.2438 5.85737 18.1057 5.62983 18.0114C5.40228 17.9172 5.1584 17.8687 4.91211 17.8687C4.4147 17.8687 3.93766 18.0662 3.58594 18.418C3.23421 18.7697 3.03662 19.2467 3.03662 19.7441C3.03662 20.2416 3.23421 20.7186 3.58594 21.0703C3.93766 21.422 4.4147 21.6196 4.91211 21.6196C5.40952 21.6196 5.88656 21.422 6.23828 21.0703ZM6.23828 9.57812C6.42109 9.406 6.56746 9.1989 6.66872 8.96913C6.76997 8.73936 6.82405 8.4916 6.82773 8.24053C6.83141 7.98947 6.78463 7.74022 6.69016 7.50758C6.59569 7.27494 6.45546 7.06364 6.27778 6.88622C6.1001 6.7088 5.8886 6.56888 5.65582 6.47475C5.42303 6.38063 5.17372 6.33421 4.92266 6.33827C4.6716 6.34232 4.42391 6.39676 4.19429 6.49835C3.96467 6.59995 3.7578 6.74663 3.58594 6.92969C3.23421 7.28141 3.03662 7.75845 3.03662 8.25586C3.03662 8.75327 3.23421 9.23031 3.58594 9.58203C3.93766 9.93375 4.4147 10.1313 4.91211 10.1313C5.40952 10.1313 5.88656 9.93375 6.23828 9.58203V9.57812ZM15.0742 21.0703C15.2484 21.2445 15.4551 21.3826 15.6827 21.4769C15.9102 21.5711 16.1541 21.6196 16.4004 21.6196C16.6467 21.6196 16.8906 21.5711 17.1181 21.4769C17.3457 21.3826 17.5524 21.2445 17.7266 21.0703C17.9007 20.8962 18.0389 20.6894 18.1331 20.4619C18.2274 20.2343 18.2759 19.9904 18.2759 19.7441C18.2759 19.4978 18.2274 19.254 18.1331 19.0264C18.0389 18.7989 17.9007 18.5921 17.7266 18.418C17.5524 18.2438 17.3457 18.1057 17.1181 18.0114C16.8906 17.9172 16.6467 17.8687 16.4004 17.8687C16.1541 17.8687 15.9102 17.9172 15.6827 18.0114C15.4551 18.1057 15.2484 18.2438 15.0742 18.418C14.9001 18.5921 14.7619 18.7989 14.6677 19.0264C14.5734 19.254 14.5249 19.4978 14.5249 19.7441C14.5249 19.9904 14.5734 20.2343 14.6677 20.4619C14.7619 20.6894 14.9001 20.8962 15.0742 21.0703Z" fill="#EAB308"/>
</g>
<defs>
<clipPath id="clip0_552_2180">
<path d="M0.65625 4H20.6562V24H0.65625V4Z" fill="white"/>
</clipPath>
</defs>
</svg>
