<svg width="16" height="17" viewBox="0 0 16 17" fill="none" xmlns="http://www.w3.org/2000/svg">
<g clip-path="url(#clip0_552_2042)">
<path d="M16 16.5H0V0.5H16V16.5Z" stroke="#E5E7EB"/>
<path d="M11.8094 3.80938L15.6469 7.64687C15.8719 7.87187 16 8.18125 16 8.5C16 8.81875 15.8719 9.12812 15.6469 9.35312L11.8094 13.1906C11.6094 13.3906 11.3406 13.5 11.0594 13.5C10.475 13.5 10 13.025 10 12.4406V10.5H6C5.44688 10.5 5 10.0531 5 9.5V7.5C5 6.94688 5.44688 6.5 6 6.5H10V4.55937C10 3.975 10.475 3.5 11.0594 3.5C11.3406 3.5 11.6094 3.6125 11.8094 3.80938ZM5 3.5H3C2.44688 3.5 2 3.94688 2 4.5V12.5C2 13.0531 2.44688 13.5 3 13.5H5C5.55312 13.5 6 13.9469 6 14.5C6 15.0531 5.55312 15.5 5 15.5H3C1.34375 15.5 0 14.1562 0 12.5V4.5C0 2.84375 1.34375 1.5 3 1.5H5C5.55312 1.5 6 1.94687 6 2.5C6 3.05313 5.55312 3.5 5 3.5Z" fill="#DE3434"/>
</g>
<defs>
<clipPath id="clip0_552_2042">
<rect width="16" height="16" fill="white" transform="translate(0 0.5)"/>
</clipPath>
</defs>
</svg>
