<svg width="18" height="17" viewBox="0 0 18 17" fill="none" xmlns="http://www.w3.org/2000/svg">
<g clip-path="url(#clip0_552_2027)">
<path d="M18 16.5H0V0.5H18V16.5Z" stroke="#E5E7EB"/>
<path d="M12 15.3778L6 13.6621V1.62151L12 3.33713V15.3778ZM13 15.3403V3.26213L16.9719 1.67151C17.4656 1.47463 18 1.83713 18 2.36838V12.8309C18 13.1371 17.8125 13.4121 17.5281 13.5278L13 15.3371V15.3403ZM0.471875 3.47151L5 1.66213V13.7371L1.02813 15.3278C0.534375 15.5246 0 15.1621 0 14.6309V4.16838C0 3.86213 0.1875 3.58713 0.471875 3.47151Z" fill="#7A8986"/>
</g>
<defs>
<clipPath id="clip0_552_2027">
<rect width="18" height="16" fill="white" transform="translate(0 0.5)"/>
</clipPath>
</defs>
</svg>
