<svg width="14" height="17" viewBox="0 0 14 17" fill="none" xmlns="http://www.w3.org/2000/svg">
<g clip-path="url(#clip0_552_2021)">
<path d="M3 1.5V2.5H1.5C0.671875 2.5 0 3.17188 0 4V5.5H14V4C14 3.17188 13.3281 2.5 12.5 2.5H11V1.5C11 0.946875 10.5531 0.5 10 0.5C9.44687 0.5 9 0.946875 9 1.5V2.5H5V1.5C5 0.946875 4.55312 0.5 4 0.5C3.44688 0.5 3 0.946875 3 1.5ZM14 6.5H0V15C0 15.8281 0.671875 16.5 1.5 16.5H12.5C13.3281 16.5 14 15.8281 14 15V6.5Z" fill="#7A8986"/>
</g>
<defs>
<clipPath id="clip0_552_2021">
<path d="M0 0.5H14V16.5H0V0.5Z" fill="white"/>
</clipPath>
</defs>
</svg>
