<svg width="14" height="17" viewBox="0 0 14 17" fill="none" xmlns="http://www.w3.org/2000/svg">
<g clip-path="url(#clip0_552_2032)">
<g clip-path="url(#clip1_552_2032)">
<g clip-path="url(#clip2_552_2032)">
<path d="M6.99836 1.50098C7.44211 1.50098 7.85148 1.73535 8.07648 2.11973L14.8265 13.6197C15.0546 14.0072 15.0546 14.4854 14.8327 14.8729C14.6109 15.2604 14.1952 15.501 13.7484 15.501H0.248358C-0.198517 15.501 -0.614142 15.2604 -0.836017 14.8729C-1.05789 14.4854 -1.05477 14.0041 -0.829767 13.6197L5.92023 2.11973C6.14523 1.73535 6.55461 1.50098 6.99836 1.50098ZM6.99836 5.50098C6.58273 5.50098 6.24836 5.83535 6.24836 6.25098V9.75098C6.24836 10.1666 6.58273 10.501 6.99836 10.501C7.41398 10.501 7.74836 10.1666 7.74836 9.75098V6.25098C7.74836 5.83535 7.41398 5.50098 6.99836 5.50098ZM7.99836 12.501C7.99836 12.2358 7.893 11.9814 7.70547 11.7939C7.51793 11.6063 7.26357 11.501 6.99836 11.501C6.73314 11.501 6.47879 11.6063 6.29125 11.7939C6.10372 11.9814 5.99836 12.2358 5.99836 12.501C5.99836 12.7662 6.10372 13.0205 6.29125 13.2081C6.47879 13.3956 6.73314 13.501 6.99836 13.501C7.26357 13.501 7.51793 13.3956 7.70547 13.2081C7.893 13.0205 7.99836 12.7662 7.99836 12.501Z" fill="#7A8986"/>
</g>
</g>
</g>
<defs>
<clipPath id="clip0_552_2032">
<rect width="14" height="16" fill="white" transform="translate(0 0.5)"/>
</clipPath>
<clipPath id="clip1_552_2032">
<path d="M0 0.5H14V16.5H0V0.5Z" fill="white"/>
</clipPath>
<clipPath id="clip2_552_2032">
<path d="M-1.00159 0.500977H14.9984V16.501H-1.00159V0.500977Z" fill="white"/>
</clipPath>
</defs>
</svg>
