<svg width="43" height="53" viewBox="0 0 43 53" fill="none" xmlns="http://www.w3.org/2000/svg">
<rect x="0.828125" y="0.5" width="41.5" height="52" rx="10" fill="#69B31D" fill-opacity="0.1"/>
<rect x="0.828125" y="0.5" width="41.5" height="52" rx="10" stroke="#E5E7EB"/>
<path d="M30.3281 40.5H12.8281V12.5H30.3281V40.5Z" stroke="#E5E7EB"/>
<g clip-path="url(#clip0_552_2166)">
<path d="M17.8281 16C18.5195 16 19.0781 16.5586 19.0781 17.25V18.5H24.0781V17.25C24.0781 16.5586 24.6367 16 25.3281 16C26.0195 16 26.5781 16.5586 26.5781 17.25V18.5H28.4531C29.4883 18.5 30.3281 19.3398 30.3281 20.375V22.25H12.8281V20.375C12.8281 19.3398 13.668 18.5 14.7031 18.5H16.5781V17.25C16.5781 16.5586 17.1367 16 17.8281 16ZM12.8281 23.5H30.3281V34.125C30.3281 35.1602 29.4883 36 28.4531 36H14.7031C13.668 36 12.8281 35.1602 12.8281 34.125V23.5ZM15.9531 26C15.6094 26 15.3281 26.2812 15.3281 26.625V30.375C15.3281 30.7188 15.6094 31 15.9531 31H19.7031C20.0469 31 20.3281 30.7188 20.3281 30.375V26.625C20.3281 26.2812 20.0469 26 19.7031 26H15.9531Z" fill="#69B31D"/>
</g>
<defs>
<clipPath id="clip0_552_2166">
<path d="M12.8281 16H30.3281V36H12.8281V16Z" fill="white"/>
</clipPath>
</defs>
</svg>
