<svg width="31" height="24" viewBox="0 0 31 24" fill="none" xmlns="http://www.w3.org/2000/svg">
<path d="M2.86731 0C1.62512 0 0.61731 1.00781 0.61731 2.25V17.25C0.61731 18.4922 1.62512 19.5 2.86731 19.5H3.61731C3.61731 21.9844 5.63293 24 8.11731 24C10.6017 24 12.6173 21.9844 12.6173 19.5H18.6173C18.6173 21.9844 20.6329 24 23.1173 24C25.6017 24 27.6173 21.9844 27.6173 19.5H29.1173C29.947 19.5 30.6173 18.8297 30.6173 18C30.6173 17.1703 29.947 16.5 29.1173 16.5V13.5V12V11.1234C29.1173 10.3266 28.8032 9.5625 28.2407 9L24.6173 5.37656C24.0548 4.81406 23.2907 4.5 22.4939 4.5H20.1173V2.25C20.1173 1.00781 19.1095 0 17.8673 0H2.86731ZM20.1173 7.5H22.4939L26.1173 11.1234V12H20.1173V7.5ZM5.86731 19.5C5.86731 18.9033 6.10436 18.331 6.52632 17.909C6.94828 17.4871 7.52057 17.25 8.11731 17.25C8.71405 17.25 9.28634 17.4871 9.7083 17.909C10.1303 18.331 10.3673 18.9033 10.3673 19.5C10.3673 20.0967 10.1303 20.669 9.7083 21.091C9.28634 21.5129 8.71405 21.75 8.11731 21.75C7.52057 21.75 6.94828 21.5129 6.52632 21.091C6.10436 20.669 5.86731 20.0967 5.86731 19.5ZM23.1173 17.25C23.714 17.25 24.2863 17.4871 24.7083 17.909C25.1303 18.331 25.3673 18.9033 25.3673 19.5C25.3673 20.0967 25.1303 20.669 24.7083 21.091C24.2863 21.5129 23.714 21.75 23.1173 21.75C22.5206 21.75 21.9483 21.5129 21.5263 21.091C21.1044 20.669 20.8673 20.0967 20.8673 19.5C20.8673 18.9033 21.1044 18.331 21.5263 17.909C21.9483 17.4871 22.5206 17.25 23.1173 17.25Z" fill="white"/>
</svg>
